<svg xmlns="http://www.w3.org/2000/svg" viewBox="0 0 220 220" role="img" aria-labelledby="t d"><title id="t">Wisata Masa Lalu 90-an</title><desc id="d">Lencana retro berbentuk lingkaran dengan angka 90 dan ornamen bintang.</desc><defs><filter id="s"><feDropShadow dx="5" dy="6" stdDeviation="0" flood-color="#17151f"/></filter></defs><circle cx="110" cy="110" r="98" fill="#f7d563" stroke="#17151f" stroke-width="7" filter="url(#s)"/><circle cx="110" cy="110" r="79" fill="#ef6f67" stroke="#17151f" stroke-width="4"/><path d="M31 112h158M110 31v158" stroke="#17151f" stroke-width="2" stroke-dasharray="7 8" opacity=".35"/><text x="110" y="121" text-anchor="middle" font-family="Arial Black,Arial,sans-serif" font-size="76" font-weight="900" fill="#fff7e8" stroke="#17151f" stroke-width="3">90</text><text x="110" y="153" text-anchor="middle" font-family="Courier New,monospace" font-size="17" font-weight="700" letter-spacing="3" fill="#17151f">NOSTALGIA</text><path d="m41 54 4 9 10 1-8 7 2 10-8-5-9 5 2-10-8-7 10-1zM174 51l3 7 8 1-6 5 2 8-7-4-7 4 2-8-6-5 8-1zM177 151l3 7 8 1-6 5 2 8-7-4-7 4 2-8-6-5 8-1z" fill="#67cbb9" stroke="#17151f" stroke-width="2"/></svg>