<svg xmlns="http://www.w3.org/2000/svg" viewBox="0 0 640 760" role="img" aria-labelledby="t d"><title id="t">Lentera Ramadan retro</title><desc id="d">Ilustrasi lentera dan bulan sabit untuk modul Ramadan 90-an.</desc><rect width="640" height="760" rx="36" fill="#0f4b43"/><circle cx="497" cy="139" r="79" fill="#f5d36a"/><circle cx="531" cy="112" r="79" fill="#0f4b43"/><g fill="#f7e7aa"><circle cx="96" cy="108" r="8"/><circle cx="162" cy="161" r="6"/><circle cx="537" cy="252" r="7"/><circle cx="458" cy="82" r="5"/><circle cx="90" cy="266" r="6"/></g><path d="M320 92v91" stroke="#f7e7aa" stroke-width="10"/><path d="M257 197h126l-24 64H281z" fill="#d99a47" stroke="#17151f" stroke-width="9"/><rect x="268" y="257" width="104" height="262" rx="30" fill="#f4cc5f" stroke="#17151f" stroke-width="10"/><rect x="287" y="286" width="66" height="186" rx="24" fill="#f8efc5" stroke="#17151f" stroke-width="8"/><path d="M299 310c30 23 33 49 8 77 40-7 64-39 46-77-14-29-39-39-54-45z" fill="#ef6d65"/><path d="M274 519h92l24 66H250z" fill="#d99a47" stroke="#17151f" stroke-width="10"/><path d="M320 585v79M292 664h56" stroke="#f7e7aa" stroke-width="10"/><text x="320" y="713" text-anchor="middle" fill="#f7e7aa" font-family="Courier New,monospace" font-size="23" font-weight="700" letter-spacing="4">RAMADHAN / 90-AN</text></svg>