<svg xmlns="http://www.w3.org/2000/svg" viewBox="0 0 1600 900">
<defs>
 <linearGradient id="wall" x1="0" y1="0" x2="0" y2="1"><stop stop-color="#c8a878"/><stop offset=".58" stop-color="#b18a63"/><stop offset="1" stop-color="#927052"/></linearGradient>
 <linearGradient id="floor" x1="0" y1="0" x2="0" y2="1"><stop stop-color="#8c704f"/><stop offset="1" stop-color="#4f3a2e"/></linearGradient>
 <linearGradient id="window" x1="0" y1="0" x2="1" y2="1"><stop stop-color="#477a83"/><stop offset=".5" stop-color="#8aa89c"/><stop offset="1" stop-color="#ddb779"/></linearGradient>
 <linearGradient id="glass" x1="0" y1="0" x2="1" y2="1"><stop stop-color="#d8eee5" stop-opacity=".5"/><stop offset=".45" stop-color="#789e9b" stop-opacity=".18"/><stop offset="1" stop-color="#e7c18a" stop-opacity=".36"/></linearGradient>
 <radialGradient id="lamp"><stop stop-color="#ffdca0" stop-opacity=".72"/><stop offset=".45" stop-color="#efb45f" stop-opacity=".18"/><stop offset="1" stop-color="#efb45f" stop-opacity="0"/></radialGradient>
 <linearGradient id="crt" x1="0" y1="0" x2="0" y2="1"><stop stop-color="#82aaa0"/><stop offset="1" stop-color="#375b59"/></linearGradient>
 <pattern id="tile" width="82" height="55" patternUnits="userSpaceOnUse"><path d="M0 0h82v55H0z" fill="none" stroke="#d8bd91" stroke-opacity=".15"/><path d="M0 27.5h82M41 0v55" stroke="#3e2e25" stroke-opacity=".12"/></pattern>
 <pattern id="rug" width="52" height="52" patternUnits="userSpaceOnUse"><path d="M26 0 52 26 26 52 0 26Z" fill="#b76f52"/><path d="M26 9 43 26 26 43 9 26Z" fill="#d7b070"/><circle cx="26" cy="26" r="7" fill="#6c795f"/></pattern>
 <filter id="shadow"><feGaussianBlur stdDeviation="14"/></filter>
 <filter id="soft"><feGaussianBlur stdDeviation="26"/></filter>
</defs>

<!-- architecture -->
<rect width="1600" height="645" fill="url(#wall)"/>
<rect y="645" width="1600" height="255" fill="url(#floor)"/>
<rect y="645" width="1600" height="255" fill="url(#tile)"/>
<path d="M0 642h1600" stroke="#513b2c" stroke-width="18"/><path d="M0 88h1600" stroke="#d8bd90" stroke-opacity=".22" stroke-width="4"/>
<rect x="95" y="668" width="830" height="194" rx="24" fill="url(#rug)" opacity=".78"/>
<ellipse cx="512" cy="770" rx="420" ry="83" fill="#1c1511" opacity=".22" filter="url(#shadow)"/>

<!-- window + curtain -->
<rect x="995" y="118" width="390" height="318" rx="7" fill="#5a402d"/>
<rect x="1020" y="143" width="340" height="268" fill="url(#window)"/>
<rect x="1020" y="143" width="340" height="268" fill="url(#glass)"/>
<path d="M1190 143v268M1020 277h340" stroke="#ead5af" stroke-opacity=".82" stroke-width="11"/>
<path d="M978 95h430" stroke="#5c4536" stroke-width="13" stroke-linecap="round"/>
<path d="M982 106q72 54 37 333h80q-10-183 37-332Z" fill="#8d5d56" opacity=".92"/>
<path d="M1401 106q-72 54-37 333h-80q10-183-37-332Z" fill="#8d5d56" opacity=".92"/>
<circle cx="1168" cy="205" r="132" fill="url(#lamp)" filter="url(#soft)"/>

<!-- wall decor -->
<rect x="637" y="88" width="220" height="238" rx="5" fill="#6d5039"/>
<rect x="653" y="104" width="188" height="206" fill="#d3b885"/>
<path d="M676 286 733 204 780 255 818 170" fill="none" stroke="#687e69" stroke-width="13"/><circle cx="735" cy="166" r="29" fill="#d28f61" opacity=".75"/>

<!-- clock anchor 72%,16% -->
<g transform="translate(1152 145)"><circle r="67" fill="#5f4634"/><circle r="52" fill="#eee0bd"/><circle r="3" fill="#48372e"/><path d="M0 0 0-31M0 0 25 18" stroke="#554238" stroke-width="6" stroke-linecap="round"/><g fill="#725b48"><circle cy="-42" r="3"/><circle cx="42" r="3"/><circle cy="42" r="3"/><circle cx="-42" r="3"/></g></g>

<!-- calendar anchor 88%,22% -->
<g transform="translate(1356 142)"><rect width="110" height="126" rx="4" fill="#eee2c4"/><rect width="110" height="30" fill="#b44f45"/><circle cx="25" cy="12" r="4" fill="#f4e5cc"/><circle cx="85" cy="12" r="4" fill="#f4e5cc"/><text x="55" y="22" text-anchor="middle" fill="#fff5e3" font-size="14" font-family="sans-serif" font-weight="700">1995</text><text x="55" y="85" text-anchor="middle" fill="#59483a" font-size="43" font-family="Georgia">17</text><path d="M20 101h70M20 112h54" stroke="#8e7b65" stroke-width="4" opacity=".55"/></g>

<!-- CRT anchor 20%,42% -->
<g transform="translate(190 300)"><ellipse cx="132" cy="240" rx="150" ry="30" fill="#1b1410" opacity=".25" filter="url(#shadow)"/><rect x="10" y="20" width="245" height="235" rx="18" fill="#4e4035"/><rect x="28" y="40" width="188" height="143" rx="24" fill="#151b19" stroke="#706251" stroke-width="6"/><rect x="42" y="54" width="160" height="115" rx="17" fill="url(#crt)"/><g stroke="#d4ead6" stroke-opacity=".15" stroke-width="2"><path d="M45 75h154M45 94h154M45 113h154M45 132h154M45 151h154"/></g><rect x="30" y="197" width="145" height="32" rx="6" fill="#352c26"/><circle cx="222" cy="79" r="13" fill="#b79761"/><circle cx="222" cy="120" r="13" fill="#6c5a46"/><g fill="#2f2822"><circle cx="198" cy="209" r="5"/><circle cx="218" cy="209" r="5"/><circle cx="238" cy="209" r="5"/></g><path d="M85 18q43-74 86 0M130 18q31-94 64-4" fill="none" stroke="#3b322b" stroke-width="5"/></g>

<!-- VCR anchor 35%,56% -->
<g transform="translate(478 458)"><rect width="190" height="60" rx="8" fill="#3b3935"/><rect x="18" y="17" width="100" height="23" rx="3" fill="#171817"/><rect x="130" y="17" width="37" height="10" rx="2" fill="#644"/><circle cx="145" cy="42" r="5" fill="#78b07d"/></g>

<!-- sofa anchor 30%,72% -->
<g transform="translate(236 548)"><rect x="0" y="74" width="480" height="168" rx="40" fill="#755345"/><rect x="42" y="15" width="396" height="130" rx="45" fill="#896450"/><rect x="52" y="52" width="175" height="119" rx="28" fill="#a1775c"/><rect x="250" y="52" width="174" height="119" rx="28" fill="#9b7057"/><path d="M62 111h155M260 111h154" stroke="#705040" stroke-width="5" opacity=".55"/><rect x="28" y="223" width="29" height="65" rx="8" fill="#443129"/><rect x="424" y="223" width="29" height="65" rx="8" fill="#443129"/></g>

<!-- tape recorder anchor 56%,52% -->
<g transform="translate(815 402)"><rect width="172" height="122" rx="13" fill="#44433e"/><rect x="18" y="15" width="136" height="28" rx="4" fill="#252724"/><path d="M28 26h93" stroke="#bbd09b" stroke-width="5" opacity=".65"/><rect x="28" y="58" width="116" height="49" rx="5" fill="#242522"/><circle cx="63" cy="82" r="18" fill="#6b6357" stroke="#b09d7f" stroke-width="4"/><circle cx="110" cy="82" r="18" fill="#6b6357" stroke="#b09d7f" stroke-width="4"/><g fill="#bfa477"><rect x="18" y="112" width="18" height="5"/><rect x="43" y="112" width="18" height="5"/><rect x="68" y="112" width="18" height="5"/></g></g>

<!-- radio anchor 68%,39% -->
<g transform="translate(1017 300)"><rect width="156" height="88" rx="8" fill="#6b5844"/><rect x="16" y="18" width="83" height="52" rx="4" fill="#332f29"/><g stroke="#aa9778" stroke-width="3"><path d="M25 27h66M25 35h66M25 43h66M25 51h66M25 59h66"/></g><rect x="111" y="21" width="28" height="8" rx="3" fill="#cab176"/><circle cx="125" cy="52" r="14" fill="#40372e" stroke="#b69764" stroke-width="4"/><path d="M136 4 151-55" stroke="#564739" stroke-width="4"/></g>

<!-- phone anchor 80%,48% -->
<g transform="translate(1219 382)"><rect x="5" y="31" width="126" height="83" rx="20" fill="#d0bd98"/><path d="M19 36q10-55 97 0" fill="none" stroke="#d9c8a6" stroke-width="27" stroke-linecap="round"/><circle cx="68" cy="75" r="29" fill="#b7a27e" stroke="#eadbb9" stroke-width="7"/><g fill="#5e5140"><circle cx="68" cy="58" r="4"/><circle cx="82" cy="65" r="4"/><circle cx="84" cy="81" r="4"/><circle cx="68" cy="91" r="4"/><circle cx="52" cy="81" r="4"/><circle cx="53" cy="65" r="4"/></g><path d="M130 90q54 20 20 74" fill="none" stroke="#51473a" stroke-width="4"/></g>

<!-- walkman + camera + album anchors -->
<g transform="translate(972 516)"><rect width="96" height="128" rx="8" fill="#333a39"/><rect x="14" y="18" width="68" height="77" rx="7" fill="#859985"/><circle cx="35" cy="59" r="18" fill="#425049"/><circle cx="63" cy="59" r="18" fill="#425049"/><rect x="19" y="105" width="55" height="7" fill="#c49762"/><path d="M90 24q44 18 12 69" fill="none" stroke="#252b2a" stroke-width="5"/></g>
<g transform="translate(913 594)"><rect width="110" height="67" rx="10" fill="#292c2b"/><rect x="15" y="-16" width="42" height="23" rx="5" fill="#373a38"/><circle cx="74" cy="33" r="23" fill="#111615" stroke="#807b6c" stroke-width="8"/><circle cx="74" cy="33" r="10" fill="#5b7e7c"/><rect x="19" y="19" width="23" height="15" rx="3" fill="#c6a977"/></g>
<g transform="translate(704 621)"><rect width="128" height="88" rx="6" fill="#6b3c35"/><rect x="12" y="11" width="104" height="65" rx="3" fill="#d4bea0" opacity=".28"/><path d="M21 64 47 38 68 54 89 31 108 57" fill="none" stroke="#e4cfaa" stroke-width="5" opacity=".7"/></g>

<!-- desk anchor 84%,70%, switch 92%,55% -->
<g transform="translate(1240 590)"><rect width="270" height="35" rx="9" fill="#654731"/><rect x="24" y="32" width="22" height="168" fill="#4f3729"/><rect x="221" y="32" width="22" height="168" fill="#4f3729"/><rect x="26" y="52" width="174" height="66" rx="5" fill="#5c402e"/><path d="M58 81h82" stroke="#a4845d" stroke-width="6"/><g transform="translate(170 -15)"><rect width="52" height="66" rx="4" fill="#e5d6b9"/><path d="M9 14h34M9 25h34M9 36h26" stroke="#806d59" stroke-width="3"/></g></g>
<g transform="translate(1440 462)"><rect width="60" height="83" rx="7" fill="#d8c5a1"/><rect x="18" y="17" width="24" height="39" rx="5" fill="#b6a07d"/><circle cx="30" cy="68" r="5" fill="#796550"/></g>

<!-- toy box anchor 15%,78% -->
<g transform="translate(142 688)"><path d="M0 37h188l-15 118H15Z" fill="#557064"/><path d="M0 37 34 0h131l23 37" fill="#789382"/><path d="M54 0 72-48l44 47" fill="#be7c56"/><circle cx="71" cy="84" r="17" fill="#ddb868"/><rect x="105" y="66" width="47" height="37" rx="8" fill="#b85c55"/></g>

<!-- little lived-in details -->
<g opacity=".72"><ellipse cx="861" cy="657" rx="76" ry="17" fill="#c8ae84"/><rect x="854" y="584" width="10" height="72" fill="#594334"/><path d="M859 593q-26-69-49-8M859 606q37-73 56-16" fill="none" stroke="#61775c" stroke-width="12"/></g>
<g opacity=".5"><rect x="1095" y="575" width="75" height="94" rx="4" fill="#79513b"/><path d="M1107 590h51M1107 607h51M1107 624h51M1107 641h51" stroke="#d7bd8a" stroke-width="4"/></g>
<rect width="1600" height="900" fill="none" stroke="#f8e5ba" stroke-opacity=".08" stroke-width="8"/>
</svg>